<?xml version="1.0" standalone="no"?>
<!DOCTYPE svg PUBLIC "-//W3C//DTD SVG 20010904//EN"
 "http://www.w3.org/TR/2001/REC-SVG-20010904/DTD/svg10.dtd">
<svg version="1.0" xmlns="http://www.w3.org/2000/svg"
 width="500.000000pt" height="500.000000pt" viewBox="0 0 500.000000 500.000000"
 preserveAspectRatio="xMidYMid meet">
<metadata>
Created by potrace 1.11, written by Peter Selinger 2001-2013
</metadata>
<g transform="translate(0.000000,500.000000) scale(0.100000,-0.100000)"
fill="#000000" stroke="none">
<path d="M1671 3795 c-28 -21 -543 -449 -626 -520 -27 -24 -257 -215 -510
-425 -253 -210 -468 -390 -478 -400 -18 -17 -13 -22 125 -136 79 -65 154 -128
168 -140 14 -12 169 -142 345 -289 374 -311 319 -266 739 -617 l331 -277 218
-1 217 0 0 1410 c0 776 -3 1411 -7 1411 -5 1 -118 2 -252 3 -230 1 -246 0
-270 -19z"/>
<path d="M2460 3671 c-1 -310 -1 -2598 0 -2638 l0 -43 43 0 44 0 0 1410 c0
776 -3 1410 -6 1411 -3 0 -23 2 -43 3 l-38 2 0 -145z"/>
<path d="M2805 3810 c-1 -3 -2 -638 -2 -1413 l0 -1407 216 0 216 0 175 146
c96 81 198 166 225 189 28 23 124 104 215 179 91 76 174 145 185 154 11 10 88
73 170 142 83 69 152 127 155 130 3 3 139 117 303 253 163 137 297 251 297
254 0 3 -11 14 -25 24 -24 20 -848 704 -915 761 -19 16 -187 157 -374 311
l-338 282 -250 0 c-137 0 -251 -2 -253 -5z"/>
</g>
</svg>
